<svg xmlns="http://www.w3.org/2000/svg" viewBox="0 0 320 320" role="img" aria-labelledby="title">
  <title id="title">NATI icon</title>
  <g fill="#1d2f68">
    <rect x="0" y="62" width="36" height="86" rx="2"/>
    <circle cx="18" cy="24" r="24"/>
    <circle cx="18" cy="169" r="18"/>
    <rect x="0" y="190" width="36" height="86" rx="2"/>
    <circle cx="18" cy="296" r="22"/>
    <rect x="47" y="45" width="38" height="100" transform="rotate(-45 66 95)"/>
    <rect x="72" y="158" width="40" height="30"/>
    <rect x="252" y="62" width="36" height="86" rx="2"/>
    <circle cx="270" cy="24" r="24"/>
    <circle cx="270" cy="169" r="18"/>
    <rect x="252" y="190" width="36" height="86" rx="2"/>
    <circle cx="270" cy="296" r="22"/>
    <rect x="206" y="211" width="38" height="104" transform="rotate(-45 225 263)"/>
    <rect x="226" y="158" width="40" height="30"/>
    <circle cx="144" cy="160" r="74"/>
    <path fill="#fff" d="M146 98c7-4 14-4 17 1 3 4 1 10-4 16l-16 18 25-6c5-1 9 0 10 3 1 4-2 7-7 10l-41 20-20 41c-2 5-6 8-10 7-3-1-4-5-3-10l6-25-18 16c-6 5-12 7-16 4-5-3-5-10-1-17l30-48c4-7 10-12 17-15l31-15Z"/>
    <path d="M144 86c-41 0-74 33-74 74 0 25 12 47 31 61l12-61 31-74Zm0 148c41 0 74-33 74-74 0-21-9-41-24-54l-62 128c4 0 8 0 12 0Z"/>
  </g>
</svg>
